<svg xmlns="http://www.w3.org/2000/svg" viewBox="0 0 628.5 100.12">
	<title>android-things</title>
	<g>
		<path d="M349.7,74.6V3.6H336.2v21c-3.8-3.7-8.9-5.7-15.2-5.7-15.5,0-27.2,12.6-27.2,28.3S305.5,75.8,321,75.8A21.32,21.32,0,0,0,336.2,70v4.7h13.5ZM322.5,62.8c-8.3,0-15-6.9-15-15.6a15.28,15.28,0,0,1,15-15.5c5.5,0,10.8,2.7,13.4,7.3a2.5,2.5,0,0,1,.4,1.3V54.1a1.9,1.9,0,0,1-.3.9,15.38,15.38,0,0,1-13.5,7.8ZM287.6,74.6V20H274.1V74.6Zm-6.7-58.8a7.9,7.9,0,1,0-7.8-7.9,7.9,7.9,0,0,0,7.8,7.9ZM239.5,75.7A28.4,28.4,0,1,0,211,47.2a28.51,28.51,0,0,0,28.5,28.5Zm0-13.6a14.9,14.9,0,1,1,14.9-14.9,14.94,14.94,0,0,1-14.9,14.9ZM196.8,74.6V45.4c0-8.6,4.5-13.2,13.2-13.2V18.9c-17.4,0-26.7,9.2-26.7,26.6V74.7h13.5Zm-20.7,0V3.6H162.6v21a21.06,21.06,0,0,0-15.2-5.8c-15.5,0-27.2,12.7-27.2,28.5s11.7,28.5,27.2,28.5c6.3,0,11.5-2.1,15.2-5.8v4.7h13.5ZM148.9,62.8c-8.3,0-15-6.9-15-15.6a15.28,15.28,0,0,1,15-15.5c5.5,0,10.8,2.7,13.4,7.3a2.5,2.5,0,0,1,.4,1.3V54.1a2.93,2.93,0,0,1-.3,1,15.38,15.38,0,0,1-13.5,7.7ZM114.6,74.6V45.1c0-14.5-11.3-26.2-25.7-26.2S63.2,30.5,63.2,45.1V74.7H76.7V45.1c0-7.2,5-12.6,12.2-12.6s12.2,5.5,12.2,12.6V74.7h13.5Zm-58.7,0V20H42.5v4.6c-3.8-3.7-8.9-5.7-15.2-5.7C11.7,18.9,0,31.5,0,47.2S11.7,75.7,27.2,75.7c6.3,0,11.5-2.1,15.2-5.8v4.7ZM28.7,62.8c-8.3,0-15-6.9-15-15.6a15.28,15.28,0,0,1,15-15.5c5.5,0,11,2.6,13.4,7.3a2.5,2.5,0,0,1,.4,1.3V54.1a2.37,2.37,0,0,1-.3,1,15.38,15.38,0,0,1-13.5,7.7Z" fill="#78c157"/>
		<path d="M386.1,75.3V65.6H385c-7.6,0-12.9-4.5-12.9-12.1V29h13.7V20H372.1V3.6h-9.8V53.4c0,13.8,8.9,21.9,22.7,21.9ZM402.8,3.6H393v71h9.8V38.3a16.88,16.88,0,0,1,15.5-9.7,14.11,14.11,0,0,1,14.3,14.3V74.6h9.8V42.3c0-12.9-9.8-23.4-22.1-23.4a23.61,23.61,0,0,0-17.4,7.2V3.6Zm59.7,71V20h-9.9V74.6Zm-4.9-60.5a6,6,0,0,0,6-6,6.1,6.1,0,0,0-6-6.1,6,6,0,0,0-5.9,6.1,5.87,5.87,0,0,0,5.9,6Zm65.9,60.5v-30a25.65,25.65,0,1,0-51.3,0v30H482v-30a15.34,15.34,0,0,1,15.8-15.8c9,0,15.9,6.6,15.9,15.8v30Zm35-8.4a18.9,18.9,0,0,1,0-37.8c6.5,0,12.8,3.1,15.8,8.4a3,3,0,0,1,.5,1.6V56a2.73,2.73,0,0,1-.5,1.6,18.83,18.83,0,0,1-15.8,8.6ZM535.7,93.8c9.3,4.9,14.6,6.5,23.2,6.3,15.4-.4,25.7-10.8,25.7-24.8V20h-9.8v5.8c-4.3-4.3-11-5.8-17.7-5.8-15,0-26.7,12.2-26.7,27.3s11.7,27.5,26.7,27.5c6.7,0,13.4-1.6,17.7-5.8v6.4c0,8.5-6.4,14.7-16.9,15.2-6.3.3-10.8-1.4-17.7-5.2Zm90.8-71.1a35.49,35.49,0,0,0-15.9-3.8c-10.1,0-19.3,7.1-19.3,17,0,8.8,7.2,12.8,15.4,14.4,5.7,1.1,12.6,3.5,12.6,8.6,0,4.8-4.9,8.3-10.8,8.3-4.8,0-9.8-1.6-14.1-3.3l-1.7,8.5a45.25,45.25,0,0,0,16,3.3c11.4,0,19.8-7.4,19.8-17.3,0-8.9-6.8-13.2-15.4-14.9-4.6-.9-12.4-2.6-12.4-7.8,0-4.4,4.6-8.5,9.8-8.5a29.27,29.27,0,0,1,13.4,3.4l2.6-7.9Z" fill="#666"/>
	</g>
</svg>
